<?xml version="1.0" encoding="UTF-8" standalone="no"?>
<!-- Generator: Adobe Illustrator 16.0.0, SVG Export Plug-In . SVG Version: 6.00 Build 0)  -->

<svg
   xmlns:dc="http://purl.org/dc/elements/1.1/"
   xmlns:cc="http://creativecommons.org/ns#"
   xmlns:rdf="http://www.w3.org/1999/02/22-rdf-syntax-ns#"
   xmlns:svg="http://www.w3.org/2000/svg"
   xmlns="http://www.w3.org/2000/svg"
   xmlns:sodipodi="http://sodipodi.sourceforge.net/DTD/sodipodi-0.dtd"
   xmlns:inkscape="http://www.inkscape.org/namespaces/inkscape"
   version="1.1"
   id="svg8"
   sodipodi:docname="kribzon__logo__transparent_black font.svg"
   inkscape:version="0.92.4 (5da689c313, 2019-01-14)"
   x="0px"
   y="0px"
   width="1920px"
   height="1080px"
   viewBox="0 0 1920 1080"
   enable-background="new 0 0 1920 1080"
   xml:space="preserve"><metadata
   id="metadata98"><rdf:RDF><cc:Work
       rdf:about=""><dc:format>image/svg+xml</dc:format><dc:type
         rdf:resource="http://purl.org/dc/dcmitype/StillImage" /></cc:Work></rdf:RDF></metadata>
<defs
   id="defs16">
	
	
		<inkscape:path-effect
   is_visible="true"
   pattern="M 0,5 C 0,2.24 2.24,0 5,0 7.76,0 10,2.24 10,5 10,7.76 7.76,10 5,10 2.24,10 0,7.76 0,5 Z"
   copytype="single_stretched"
   prop_units="false"
   effect="skeletal"
   fuse_tolerance="0"
   scale_y_rel="false"
   tang_offset="0"
   normal_offset="0"
   prop_scale="0.26458332"
   spacing="0"
   id="path-effect11646"
   vertical_pattern="false">
		</inkscape:path-effect>
	
		<inkscape:path-effect
   is_visible="true"
   pattern="M 0,5 C 0,2.24 2.24,0 5,0 7.76,0 10,2.24 10,5 10,7.76 7.76,10 5,10 2.24,10 0,7.76 0,5 Z"
   copytype="single_stretched"
   prop_units="false"
   effect="skeletal"
   fuse_tolerance="0"
   scale_y_rel="false"
   tang_offset="0"
   normal_offset="0"
   prop_scale="0.26458332"
   spacing="0"
   id="path-effect11592"
   vertical_pattern="false">
		</inkscape:path-effect>
	
		<inkscape:path-effect
   is_visible="true"
   pattern="M 0,5 C 0,2.24 2.24,0 5,0 7.76,0 10,2.24 10,5 10,7.76 7.76,10 5,10 2.24,10 0,7.76 0,5 Z"
   copytype="single_stretched"
   prop_units="false"
   effect="skeletal"
   fuse_tolerance="0"
   scale_y_rel="false"
   tang_offset="0"
   normal_offset="0"
   prop_scale="-0.95695929"
   spacing="0"
   id="path-effect10877"
   vertical_pattern="false">
		</inkscape:path-effect>
	
		<inkscape:perspective
   inkscape:vp_x="-13.607142 : 86.178569 : 1"
   inkscape:vp_y="0 : 1000 : 0"
   sodipodi:type="inkscape:persp3d"
   inkscape:vp_z="507.99998 : 142.875 : 1"
   id="perspective6073"
   inkscape:persp3d-origin="253.99999 : 95.250003 : 1">
		</inkscape:perspective>
	
		<inkscape:path-effect
   is_visible="true"
   pattern="M 0,5 C 0,2.24 2.24,0 5,0 7.76,0 10,2.24 10,5 10,7.76 7.76,10 5,10 2.24,10 0,7.76 0,5 Z"
   copytype="single_stretched"
   prop_units="false"
   effect="skeletal"
   fuse_tolerance="0"
   scale_y_rel="false"
   tang_offset="0"
   normal_offset="0"
   prop_scale="0.26458332"
   spacing="0"
   id="path-effect4634"
   vertical_pattern="false">
		</inkscape:path-effect>
	<inkscape:path-effect
   is_visible="true"
   effect="spiro"
   id="path-effect4632" />
	
		<inkscape:path-effect
   is_visible="true"
   pattern="M 0,5 C 0,2.24 2.24,0 5,0 7.76,0 10,2.24 10,5 10,7.76 7.76,10 5,10 2.24,10 0,7.76 0,5 Z"
   copytype="single_stretched"
   prop_units="false"
   effect="skeletal"
   fuse_tolerance="0"
   scale_y_rel="false"
   tang_offset="0"
   normal_offset="0"
   prop_scale="0.26458332"
   spacing="0"
   id="path-effect4616"
   vertical_pattern="false">
		</inkscape:path-effect>
	<inkscape:path-effect
   is_visible="true"
   effect="spiro"
   id="path-effect4614" />
	
		<inkscape:path-effect
   is_visible="true"
   pattern="M 0,5 C 0,2.24 2.24,0 5,0 7.76,0 10,2.24 10,5 10,7.76 7.76,10 5,10 2.24,10 0,7.76 0,5 Z"
   copytype="single_stretched"
   prop_units="false"
   effect="skeletal"
   fuse_tolerance="0"
   scale_y_rel="false"
   tang_offset="0"
   normal_offset="0"
   prop_scale="0.26458332"
   spacing="0"
   id="path-effect906"
   vertical_pattern="false">
		</inkscape:path-effect>
	<inkscape:path-effect
   is_visible="true"
   effect="spiro"
   id="path-effect904" />
	
		<inkscape:path-effect
   is_visible="true"
   effect="powerstroke"
   offset_points="8,-0.32556187"
   miter_limit="4"
   linejoin_type="extrp_arc"
   sort_points="true"
   id="path-effect900"
   end_linecap_type="zerowidth"
   start_linecap_type="zerowidth"
   interpolator_beta="0.2"
   interpolator_type="CentripetalCatmullRom">
		</inkscape:path-effect>
	<inkscape:path-effect
   is_visible="true"
   effect="spiro"
   id="path-effect896" />
	<inkscape:path-effect
   is_visible="true"
   effect="spiro"
   id="path-effect892" />
	<inkscape:path-effect
   is_visible="true"
   effect="spiro"
   id="path-effect872" />
</defs>
<sodipodi:namedview
   units="px"
   borderlayer="false"
   showguides="true"
   showborder="true"
   inkscape:cx="853.34101"
   showgrid="false"
   borderopacity="1.0"
   inkscape:cy="567.06122"
   pagecolor="#ffffff"
   bordercolor="#666666"
   inkscape:zoom="0.35"
   id="base"
   inkscape:snap-global="false"
   inkscape:window-maximized="1"
   inkscape:window-y="-8"
   inkscape:window-x="-8"
   inkscape:window-height="706"
   inkscape:window-width="1366"
   inkscape:showpageshadow="true"
   inkscape:pagecheckerboard="false"
   inkscape:current-layer="svg8"
   inkscape:document-units="px"
   inkscape:pageshadow="2"
   inkscape:pageopacity="0.0">
	</sodipodi:namedview>
<g
   id="layer1"
   transform="translate(0,-11.24998)"
   inkscape:label="gornji deo"
   inkscape:groupmode="layer">
	<g
   id="g4704"
   transform="matrix(0.98113192,0,0,1.084104,37.505258,20.802015)">
	</g>
	<g
   id="g4721"
   transform="translate(0.75595238,45.357143)">
	</g>
	<g
   id="g6189"
   transform="matrix(2.4405247,0,0,2.2678443,283.50013,231.99315)"
   inkscape:label="Gear24">
		<g
   id="g7602"
   transform="matrix(0.18273074,0,0,0.19973001,-45.082814,-71.799805)">
		</g>
		<g
   id="g7604"
   transform="matrix(0.18273074,0,0,0.19973001,-45.082814,-71.799805)">
		</g>
		<g
   id="g7606"
   transform="matrix(0.18273074,0,0,0.19973001,-45.082814,-71.799805)">
		</g>
		<g
   id="g7608"
   transform="matrix(0.18273074,0,0,0.19973001,-45.082814,-71.799805)">
		</g>
		<g
   id="g7610"
   transform="matrix(0.18273074,0,0,0.19973001,-45.082814,-71.799805)">
		</g>
		<g
   id="g7612"
   transform="matrix(0.18273074,0,0,0.19973001,-45.082814,-71.799805)">
		</g>
		<g
   id="g7614"
   transform="matrix(0.18273074,0,0,0.19973001,-45.082814,-71.799805)">
		</g>
		<g
   id="g7616"
   transform="matrix(0.18273074,0,0,0.19973001,-45.082814,-71.799805)">
		</g>
		<g
   id="g7618"
   transform="matrix(0.18273074,0,0,0.19973001,-45.082814,-71.799805)">
		</g>
		<g
   id="g7620"
   transform="matrix(0.18273074,0,0,0.19973001,-45.082814,-71.799805)">
		</g>
		<g
   id="g7622"
   transform="matrix(0.18273074,0,0,0.19973001,-45.082814,-71.799805)">
		</g>
		<g
   id="g7624"
   transform="matrix(0.18273074,0,0,0.19973001,-45.082814,-71.799805)">
		</g>
		<g
   id="g7626"
   transform="matrix(0.18273074,0,0,0.19973001,-45.082814,-71.799805)">
		</g>
		<g
   id="g7628"
   transform="matrix(0.18273074,0,0,0.19973001,-45.082814,-71.799805)">
		</g>
		<g
   id="g7630"
   transform="matrix(0.18273074,0,0,0.19973001,-45.082814,-71.799805)">
		</g>
		<g
   id="g7716"
   transform="matrix(1.0991913,0,0,1.2273317,-6.6543653,-59.155648)">
		</g>
		<g
   id="g7718"
   transform="matrix(1.0991913,0,0,1.2273317,-6.6543653,-59.155648)">
		</g>
		<g
   id="g7720"
   transform="matrix(1.0991913,0,0,1.2273317,-6.6543653,-59.155648)">
		</g>
		<g
   id="g7722"
   transform="matrix(1.0991913,0,0,1.2273317,-6.6543653,-59.155648)">
		</g>
		<g
   id="g7724"
   transform="matrix(1.0991913,0,0,1.2273317,-6.6543653,-59.155648)">
		</g>
		<g
   id="g7726"
   transform="matrix(1.0991913,0,0,1.2273317,-6.6543653,-59.155648)">
		</g>
		<g
   id="g7728"
   transform="matrix(1.0991913,0,0,1.2273317,-6.6543653,-59.155648)">
		</g>
		<g
   id="g7730"
   transform="matrix(1.0991913,0,0,1.2273317,-6.6543653,-59.155648)">
		</g>
		<g
   id="g7732"
   transform="matrix(1.0991913,0,0,1.2273317,-6.6543653,-59.155648)">
		</g>
		<g
   id="g7734"
   transform="matrix(1.0991913,0,0,1.2273317,-6.6543653,-59.155648)">
		</g>
		<g
   id="g7736"
   transform="matrix(1.0991913,0,0,1.2273317,-6.6543653,-59.155648)">
		</g>
		<g
   id="g7738"
   transform="matrix(1.0991913,0,0,1.2273317,-6.6543653,-59.155648)">
		</g>
		<g
   id="g7740"
   transform="matrix(1.0991913,0,0,1.2273317,-6.6543653,-59.155648)">
		</g>
		<g
   id="g7742"
   transform="matrix(1.0991913,0,0,1.2273317,-6.6543653,-59.155648)">
		</g>
		<g
   id="g7744"
   transform="matrix(1.0991913,0,0,1.2273317,-6.6543653,-59.155648)">
		</g>
		<g
   id="g7839"
   transform="matrix(0.34325074,0,0,0.27628355,-81.460036,-99.096292)">
		</g>
		<g
   id="g7841"
   transform="matrix(0.34325074,0,0,0.27628355,-81.460036,-99.096292)">
		</g>
		<g
   id="g7843"
   transform="matrix(0.34325074,0,0,0.27628355,-81.460036,-99.096292)">
		</g>
		<g
   id="g7845"
   transform="matrix(0.34325074,0,0,0.27628355,-81.460036,-99.096292)">
		</g>
		<g
   id="g7847"
   transform="matrix(0.34325074,0,0,0.27628355,-81.460036,-99.096292)">
		</g>
		<g
   id="g7849"
   transform="matrix(0.34325074,0,0,0.27628355,-81.460036,-99.096292)">
		</g>
		<g
   id="g7851"
   transform="matrix(0.34325074,0,0,0.27628355,-81.460036,-99.096292)">
		</g>
		<g
   id="g7853"
   transform="matrix(0.34325074,0,0,0.27628355,-81.460036,-99.096292)">
		</g>
		<g
   id="g7855"
   transform="matrix(0.34325074,0,0,0.27628355,-81.460036,-99.096292)">
		</g>
		<g
   id="g7857"
   transform="matrix(0.34325074,0,0,0.27628355,-81.460036,-99.096292)">
		</g>
		<g
   id="g7859"
   transform="matrix(0.34325074,0,0,0.27628355,-81.460036,-99.096292)">
		</g>
		<g
   id="g7861"
   transform="matrix(0.34325074,0,0,0.27628355,-81.460036,-99.096292)">
		</g>
		<g
   id="g7863"
   transform="matrix(0.34325074,0,0,0.27628355,-81.460036,-99.096292)">
		</g>
		<g
   id="g7865"
   transform="matrix(0.34325074,0,0,0.27628355,-81.460036,-99.096292)">
		</g>
		<g
   id="g7867"
   transform="matrix(0.34325074,0,0,0.27628355,-81.460036,-99.096292)">
		</g>
	</g>
</g>
<g
   id="layer2"
   inkscape:label="donji deo"
   inkscape:groupmode="layer">
</g>
<g
   id="layer3"
   inkscape:label="meso"
   inkscape:groupmode="layer">
</g>
<g
   id="layer5"
   inkscape:label="sir"
   inkscape:groupmode="layer">
</g>
<g
   id="layer6"
   inkscape:label="kecap"
   inkscape:groupmode="layer">
</g>
<g
   id="layer7"
   inkscape:label="susam"
   inkscape:groupmode="layer">
</g>
<g
   id="g10987"
   transform="matrix(1.338857,0,0,1.1857925,8.488249,-31.034787)">
</g>
<g
   id="text10993"
   transform="scale(1.2200045,0.81966913)">
</g>


<g
   id="g11030"
   transform="matrix(0.59094117,0,0,0.66414824,249.4988,166.23201)">
	<g
   id="text10964"
   transform="matrix(2.0347087,0.06931282,0,1.5838727,-1279.9,104.00994)">
		<path
   style="fill:#c41230"
   id="path10970"
   sodipodi:nodetypes="cccccccccccccccccc"
   inkscape:connector-curvature="0"
   d="m 1463.691,448.708 -23.238,1.155 c -20.27,4.378 -26.151,-0.779 -40.217,-16.417 l -131.341,-146.019 -36.986,39.036 v 93.661 c 2.708,36.533 -3.394,31.048 -29.994,31.062 -22.644,2.671 -19.489,-3.094 -19.489,-29.151 V 116.209 c -2.558,-37.402 2.251,-32.714 29.748,-32.729 23.316,-2.867 19.734,3.905 19.734,30.596 v 161.27 l 163.134,-173.322 c 15.663,-22.342 28.527,-18.652 50.524,-18.663 30.136,-1.041 28.673,-1.75 5.925,21.922 l -145.11,151.01 164.02,170.149 c 23.353,22.715 21.914,20.843 -6.71,22.266 z" />
	</g>
	<path
   style="fill:#204782"
   inkscape:connector-curvature="0"
   d="m 1198.738,300.763 h -42.428 c -17.105,0 -30.971,13.703 -30.971,30.605 v 561.075 c 0,16.902 13.866,30.603 30.971,30.603 h 42.428 c 17.105,0 30.971,-13.701 30.971,-30.603 V 331.368 c -10e-4,-16.903 -13.866,-30.605 -30.971,-30.605 z"
   id="path77" />
</g><g
   id="g91"
   transform="matrix(0.79668924,0,0,1,290.82752,0)">
	<path
   style="fill:#231f20;fill-opacity:0.99140003"
   id="path11168"
   inkscape:connector-curvature="0"
   d="m 544.375,855.29 v 15.192 l 25.958,-17.972 c 1.246,-0.866 2.3,-1.507 3.161,-1.921 0.891,-0.414 2.063,-0.62 3.518,-0.62 1.899,0 3.428,0.374 4.586,1.123 1.188,0.729 1.78,1.625 1.78,2.689 0,1.281 -0.994,2.552 -2.982,3.813 l -16.073,10.108 18.521,17.617 c 1.307,1.222 2.286,2.296 2.938,3.222 0.653,0.906 0.979,1.793 0.979,2.66 0,0.966 -0.578,1.804 -1.736,2.513 -1.128,0.709 -2.671,1.064 -4.63,1.064 -1.841,0 -3.34,-0.257 -4.497,-0.769 -1.158,-0.532 -2.137,-1.231 -2.938,-2.099 -0.801,-0.868 -1.514,-1.655 -2.138,-2.365 l -15.627,-15.961 -10.82,6.887 v 8.956 c 0,1.813 -0.623,3.163 -1.869,4.05 -1.247,0.867 -2.85,1.301 -4.809,1.301 -1.128,0 -2.212,-0.197 -3.251,-0.592 -1.038,-0.394 -1.84,-0.926 -2.404,-1.596 -0.415,-0.552 -0.667,-1.192 -0.757,-1.921 -0.089,-0.729 -0.133,-1.784 -0.133,-3.163 V 855.29 c 0,-1.773 0.578,-3.104 1.736,-3.99 1.188,-0.887 2.79,-1.33 4.809,-1.33 1.988,0 3.592,0.443 4.809,1.33 1.246,0.866 1.869,2.196 1.869,3.99 z" />
	<path
   style="fill:#231f20;fill-opacity:0.99140003"
   id="path11170"
   inkscape:connector-curvature="0"
   d="m 616.326,875.507 h -4.631 v 13.922 c 0,1.833 -0.608,3.183 -1.825,4.05 -1.217,0.867 -2.806,1.301 -4.765,1.301 -2.107,0 -3.739,-0.453 -4.897,-1.36 -1.157,-0.906 -1.736,-2.236 -1.736,-3.99 v -33.342 c 0,-1.892 0.639,-3.262 1.915,-4.108 1.276,-0.848 3.339,-1.271 6.188,-1.271 h 21.505 c 2.969,0 5.506,0.089 7.613,0.267 2.107,0.157 4.008,0.492 5.699,1.005 2.049,0.571 3.859,1.389 5.432,2.453 1.574,1.064 2.761,2.306 3.563,3.725 0.831,1.398 1.246,2.887 1.246,4.463 0,3.232 -1.38,5.813 -4.141,7.745 -2.73,1.931 -6.886,3.3 -12.467,4.108 2.346,0.827 4.586,2.049 6.724,3.665 2.137,1.616 4.037,3.34 5.699,5.173 1.691,1.813 2.998,3.458 3.918,4.937 0.95,1.458 1.425,2.463 1.425,3.015 0,0.571 -0.282,1.143 -0.846,1.715 -0.535,0.552 -1.276,0.984 -2.227,1.3 -0.95,0.335 -2.048,0.503 -3.295,0.503 -1.484,0 -2.73,-0.236 -3.74,-0.709 -1.009,-0.454 -1.885,-1.035 -2.627,-1.744 -0.712,-0.71 -1.691,-1.754 -2.938,-3.134 l -5.298,-5.853 c -1.899,-2.147 -3.606,-3.783 -5.12,-4.906 -1.484,-1.123 -2.998,-1.893 -4.542,-2.306 -1.543,-0.417 -3.487,-0.624 -5.832,-0.624 z m 7.568,-18.208 h -12.199 v 11.912 h 11.844 c 3.176,0 5.848,-0.178 8.014,-0.532 2.167,-0.374 3.814,-0.995 4.942,-1.862 1.157,-0.887 1.736,-2.099 1.736,-3.636 0,-1.202 -0.46,-2.256 -1.38,-3.162 -0.92,-0.927 -2.196,-1.616 -3.829,-2.069 -1.544,-0.434 -4.586,-0.651 -9.128,-0.651 z" />
	<path
   style="fill:#231f20;fill-opacity:0.99140003"
   id="path11172"
   inkscape:connector-curvature="0"
   d="m 664.635,889.429 v -34.14 c 0,-1.773 0.608,-3.104 1.825,-3.99 1.217,-0.886 2.79,-1.33 4.72,-1.33 1.988,0 3.591,0.443 4.809,1.33 1.246,0.866 1.869,2.196 1.869,3.99 v 34.14 c 0,1.794 -0.623,3.134 -1.869,4.021 -1.218,0.887 -2.82,1.33 -4.809,1.33 -1.9,0 -3.474,-0.443 -4.72,-1.33 -1.217,-0.907 -1.825,-2.247 -1.825,-4.021 z" />
	<path
   style="fill:#231f20;fill-opacity:0.99140003"
   id="path11174"
   inkscape:connector-curvature="0"
   d="M 720.467,894.041 H 700.52 c -2.879,0 -4.942,-0.424 -6.188,-1.271 -1.218,-0.866 -1.826,-2.236 -1.826,-4.108 v -32.573 c 0,-1.911 0.623,-3.281 1.87,-4.108 1.276,-0.848 3.324,-1.271 6.145,-1.271 h 21.148 c 3.117,0 5.818,0.128 8.104,0.385 2.286,0.256 4.334,0.748 6.145,1.478 1.543,0.61 2.909,1.39 4.096,2.335 1.188,0.927 2.093,1.961 2.716,3.104 0.624,1.123 0.936,2.315 0.936,3.577 0,4.335 -3.266,7.508 -9.795,9.518 8.578,1.813 12.867,5.341 12.867,10.582 0,2.424 -0.936,4.611 -2.805,6.562 -1.87,1.932 -4.394,3.36 -7.569,4.286 -1.989,0.552 -4.274,0.946 -6.856,1.183 -2.585,0.212 -5.598,0.321 -9.041,0.321 z m -0.98,-19.244 h -13.758 v 12.651 h 14.203 c 8.935,0 13.401,-2.138 13.401,-6.414 0,-2.188 -1.157,-3.773 -3.473,-4.759 -2.313,-0.984 -5.772,-1.477 -10.373,-1.478 z m -13.758,-17.498 v 11.202 h 12.11 c 3.295,0 5.833,-0.206 7.614,-0.62 1.811,-0.414 3.19,-1.202 4.141,-2.365 0.741,-0.827 1.112,-1.754 1.112,-2.778 0,-2.188 -1.172,-3.636 -3.517,-4.345 -2.345,-0.729 -5.922,-1.094 -10.73,-1.094 z" />
	<path
   style="fill:#231f20;fill-opacity:0.99140003"
   id="path11176"
   inkscape:connector-curvature="0"
   d="m 756.397,883.931 33.526,-26.632 h -28.807 c -2.019,0 -3.547,-0.296 -4.586,-0.887 -1.009,-0.592 -1.514,-1.369 -1.514,-2.335 0,-1.005 0.505,-1.813 1.514,-2.424 1.039,-0.631 2.567,-0.946 4.586,-0.946 h 37.133 c 4.809,0 7.213,1.488 7.213,4.464 0,1.419 -0.4,2.552 -1.202,3.399 -0.802,0.847 -2.419,2.217 -4.853,4.108 l -31.346,24.77 h 34.551 c 2.049,0 3.577,0.286 4.586,0.857 1.01,0.552 1.514,1.33 1.514,2.335 0,1.045 -0.504,1.872 -1.514,2.483 -1.009,0.61 -2.537,0.916 -4.586,0.916 h -42.387 c -2.879,0 -5.046,-0.424 -6.5,-1.271 -1.455,-0.867 -2.182,-2.021 -2.182,-3.459 0,-0.492 0.118,-0.945 0.355,-1.359 0.238,-0.414 0.55,-0.798 0.936,-1.153 0.416,-0.374 0.979,-0.837 1.691,-1.389 0.715,-0.569 1.338,-1.063 1.872,-1.477 z" />
	<path
   style="fill:#231f20;fill-opacity:0.99140003"
   id="path11178"
   inkscape:connector-curvature="0"
   d="m 845.802,849.969 c 6.768,0 12.57,0.916 17.409,2.748 4.867,1.813 8.548,4.404 11.041,7.774 2.494,3.35 3.74,7.291 3.74,11.823 0,3.35 -0.683,6.395 -2.048,9.134 -1.365,2.739 -3.414,5.113 -6.145,7.124 -2.73,2.01 -6.085,3.547 -10.063,4.61 -3.978,1.064 -8.533,1.597 -13.669,1.597 -5.105,0 -9.676,-0.542 -13.713,-1.626 -4.037,-1.104 -7.406,-2.65 -10.107,-4.641 -2.701,-1.991 -4.749,-4.385 -6.144,-7.183 -1.366,-2.799 -2.048,-5.823 -2.048,-9.074 0,-3.331 0.712,-6.385 2.137,-9.164 1.454,-2.778 3.547,-5.143 6.277,-7.094 2.731,-1.951 6.056,-3.438 9.974,-4.463 3.919,-1.043 8.371,-1.565 13.359,-1.565 z m 18.789,22.287 c 0,-3.173 -0.772,-5.922 -2.315,-8.247 -1.544,-2.325 -3.755,-4.079 -6.634,-5.262 -2.85,-1.202 -6.13,-1.803 -9.84,-1.803 -2.642,0 -5.091,0.335 -7.347,1.005 -2.227,0.65 -4.155,1.605 -5.788,2.867 -1.603,1.261 -2.879,2.877 -3.829,4.848 -0.92,1.951 -1.38,4.147 -1.38,6.592 0,2.463 0.46,4.689 1.38,6.68 0.95,1.99 2.271,3.646 3.963,4.966 1.722,1.301 3.681,2.276 5.877,2.927 2.227,0.65 4.66,0.976 7.302,0.976 3.384,0 6.485,-0.563 9.306,-1.686 2.85,-1.123 5.105,-2.857 6.768,-5.202 1.69,-2.345 2.537,-5.232 2.537,-8.661 z" />
	<path
   style="fill:#231f20;fill-opacity:0.99140003"
   id="path11180"
   inkscape:connector-curvature="0"
   d="m 906.621,855.23 25.423,25.539 v -25.775 c 0,-1.675 0.534,-2.927 1.603,-3.754 1.099,-0.848 2.568,-1.271 4.408,-1.271 1.899,0 3.398,0.423 4.497,1.271 1.099,0.827 1.647,2.079 1.647,3.754 v 34.081 c 0,3.803 -2.375,5.705 -7.124,5.705 -1.188,0 -2.256,-0.118 -3.206,-0.355 -0.949,-0.217 -1.84,-0.571 -2.671,-1.063 -0.831,-0.493 -1.603,-1.064 -2.315,-1.715 -0.712,-0.67 -1.425,-1.35 -2.137,-2.039 l -24.8,-25.243 v 25.391 c 0,1.655 -0.579,2.906 -1.736,3.754 -1.158,0.848 -2.642,1.271 -4.452,1.271 -1.871,0 -3.369,-0.424 -4.497,-1.271 -1.128,-0.867 -1.692,-2.118 -1.692,-3.754 v -33.431 c 0,-1.419 0.237,-2.532 0.713,-3.34 0.563,-0.887 1.498,-1.606 2.805,-2.158 1.306,-0.571 2.716,-0.857 4.229,-0.857 1.188,0 2.196,0.129 3.028,0.385 0.86,0.256 1.603,0.601 2.226,1.034 0.653,0.434 1.306,0.995 1.959,1.686 0.682,0.687 1.379,1.406 2.092,2.155 z" />
	<path
   style="fill:#231f20;fill-opacity:0.99140003"
   id="path11182"
   inkscape:connector-curvature="0"
   d="m 1023.228,889.133 -3.116,-5.438 h -26.536 l -3.117,5.558 c -1.217,2.167 -2.256,3.636 -3.116,4.404 -0.86,0.748 -2.271,1.123 -4.229,1.123 -1.662,0 -3.132,-0.404 -4.408,-1.212 -1.276,-0.808 -1.914,-1.725 -1.914,-2.749 0,-0.591 0.148,-1.202 0.445,-1.833 0.297,-0.63 0.786,-1.507 1.469,-2.631 l 16.696,-28.14 c 0.476,-0.808 1.039,-1.773 1.692,-2.896 0.683,-1.143 1.395,-2.089 2.137,-2.838 0.771,-0.748 1.766,-1.35 2.983,-1.803 1.247,-0.473 2.775,-0.709 4.586,-0.709 1.84,0 3.368,0.236 4.586,0.709 1.247,0.453 2.241,1.044 2.983,1.773 0.771,0.729 1.409,1.518 1.914,2.364 0.534,0.828 1.202,1.941 2.004,3.341 l 17.053,27.962 c 1.335,2.129 2.003,3.676 2.003,4.641 0,1.005 -0.638,1.932 -1.915,2.779 -1.246,0.827 -2.76,1.241 -4.541,1.241 -1.039,0 -1.93,-0.128 -2.672,-0.385 -0.741,-0.236 -1.365,-0.562 -1.869,-0.976 -0.505,-0.433 -1.054,-1.083 -1.647,-1.95 -0.565,-0.885 -1.055,-1.664 -1.471,-2.335 z m -26.179,-12.029 h 19.502 l -9.84,-17.884 z" />
	<path
   style="fill:#231f20;fill-opacity:0.99140003"
   id="path11184"
   inkscape:connector-curvature="0"
   d="M 1043.576,876.129 V 855.29 c 0,-1.773 0.594,-3.104 1.781,-3.99 1.217,-0.888 2.805,-1.331 4.764,-1.331 2.049,0 3.666,0.443 4.854,1.331 1.217,0.887 1.825,2.217 1.825,3.99 v 21.312 c 0,2.424 0.4,4.453 1.202,6.089 0.831,1.616 2.285,2.877 4.363,3.783 2.078,0.887 4.986,1.33 8.727,1.33 5.165,0 8.816,-0.906 10.953,-2.719 2.137,-1.833 3.205,-4.602 3.205,-8.307 V 855.29 c 0,-1.794 0.594,-3.124 1.781,-3.991 1.188,-0.887 2.775,-1.33 4.764,-1.33 1.989,0 3.592,0.443 4.809,1.33 1.247,0.867 1.871,2.197 1.871,3.991 v 20.838 c 0,3.39 -0.505,6.218 -1.514,8.484 -0.98,2.266 -2.85,4.256 -5.61,5.971 -2.375,1.458 -5.136,2.521 -8.282,3.191 -3.146,0.671 -6.826,1.006 -11.041,1.006 -5.017,0 -9.336,-0.355 -12.957,-1.064 -3.621,-0.729 -6.574,-1.843 -8.859,-3.34 -2.286,-1.518 -3.963,-3.449 -5.031,-5.794 -1.071,-2.365 -1.605,-5.183 -1.605,-8.453 z" />
	<path
   style="fill:#231f20;fill-opacity:0.99140003"
   id="path11186"
   inkscape:connector-curvature="0"
   d="m 1155.108,857.95 h -14.426 v 31.479 c 0,1.813 -0.608,3.163 -1.825,4.05 -1.217,0.867 -2.79,1.301 -4.72,1.301 -1.959,0 -3.562,-0.443 -4.809,-1.33 -1.217,-0.887 -1.825,-2.227 -1.825,-4.021 V 857.95 h -14.426 c -2.256,0 -3.934,-0.325 -5.031,-0.976 -1.099,-0.67 -1.647,-1.547 -1.647,-2.631 0,-1.123 0.563,-2.01 1.692,-2.66 1.157,-0.65 2.819,-0.976 4.986,-0.976 h 42.03 c 2.286,0 3.978,0.335 5.075,1.005 1.129,0.67 1.692,1.547 1.692,2.631 0,1.084 -0.563,1.961 -1.692,2.631 -1.125,0.651 -2.818,0.976 -5.074,0.976 z" />
	<path
   style="fill:#231f20;fill-opacity:0.99140003"
   id="path11188"
   inkscape:connector-curvature="0"
   d="m 1197.295,849.969 c 6.768,0 12.57,0.916 17.408,2.748 4.868,1.813 8.549,4.404 11.042,7.774 2.493,3.35 3.74,7.291 3.74,11.823 0,3.35 -0.683,6.395 -2.048,9.134 -1.365,2.739 -3.414,5.113 -6.145,7.124 -2.73,2.01 -6.085,3.547 -10.063,4.61 -3.978,1.064 -8.533,1.597 -13.669,1.597 -5.105,0 -9.677,-0.542 -13.713,-1.626 -4.037,-1.104 -7.406,-2.65 -10.107,-4.641 -2.7,-1.99 -4.749,-4.385 -6.144,-7.183 -1.365,-2.799 -2.049,-5.823 -2.049,-9.074 0,-3.331 0.713,-6.385 2.138,-9.164 1.454,-2.778 3.547,-5.143 6.277,-7.094 2.731,-1.951 6.056,-3.438 9.974,-4.463 3.919,-1.043 8.371,-1.565 13.359,-1.565 z m 18.789,22.287 c 0,-3.173 -0.771,-5.922 -2.315,-8.247 -1.544,-2.325 -3.755,-4.079 -6.634,-5.262 -2.85,-1.202 -6.13,-1.803 -9.84,-1.803 -2.643,0 -5.091,0.335 -7.347,1.005 -2.227,0.65 -4.155,1.605 -5.788,2.867 -1.604,1.261 -2.879,2.877 -3.829,4.848 -0.92,1.951 -1.38,4.147 -1.38,6.592 0,2.463 0.46,4.689 1.38,6.68 0.95,1.99 2.271,3.646 3.963,4.966 1.722,1.301 3.681,2.276 5.877,2.927 2.226,0.65 4.66,0.976 7.302,0.976 3.384,0 6.486,-0.563 9.306,-1.686 2.85,-1.123 5.105,-2.857 6.768,-5.202 1.691,-2.345 2.537,-5.232 2.537,-8.661 z" />
</g><g
   id="g95"
   transform="matrix(0.79668924,0,0,1,59.787638,-144)">
	<g
   id="use10902-8-4"
   transform="matrix(1.338857,0,0,0.98219938,-15.30772,164.82121)">
		<path
   id="path-2"
   d="m 794.045,326.87 c -41.552,2.818 -79.354,4.342 -104.251,25.664 -28.866,31.689 -51.765,59.284 -71.985,93.57 -5.02,6.004 -14.498,9.33 -24.193,8.489 -5.099,-0.441 -8.771,-1.208 -11.015,-2.3 -5.658,-2.752 -8.517,-4.135 -9.668,-8.301 -1.617,-5.321 -5.893,-9.74 -12.827,-13.258 -2.248,-0.918 -4.274,-1.212 -6.829,-1.058 -17.156,2.155 -48.769,16.981 -58.096,25.367 l -1.551,2.876 c -0.137,1.517 0.006,2.75 0.642,3.929 1.033,1.915 3.251,3.246 5.951,3.624 l 67.463,10.331 c 12.564,1.333 21.237,9.695 19.372,18.677 -0.31,1.491 -1.771,5.906 -2.71,6.741 -1.967,1.749 -4.521,4.049 -7.598,6.841 -5.842,5.302 -17.927,16.202 -36.256,32.701 -4.756,4.281 -8.627,9.032 -11.493,14.104 -5.361,9.489 -8.438,16.964 -9.231,22.422 -0.49,3.378 -3.45,16.046 -2.883,39.682 0.199,8.3 3.991,21.296 5.045,38.651 1.041,17.135 2.004,52.713 2.889,106.733 0.075,8.848 11.347,16.009 25.273,16.057 h 68.676 c 13.958,0 25.273,-7.188 25.273,-16.057 v -25.221 c 0,-9.639 12.299,-17.453 27.47,-17.453 6.597,0 55.842,-1.188 81.339,-1.617 7.627,-0.128 11.263,0.43 11.983,2.491 0.72,2.061 -1.367,1.906 -5.274,3.657 -13.232,5.931 -46.839,16.911 -57.37,22.281 -2.013,1.025 -3.207,2.684 -3.207,4.451 v 11.41 c -0.075,28.126 -35.944,50.915 -80.214,50.963 h -68.676 c -22.945,-0.024 -35.514,-4.282 -60.531,-22.261 -10.779,-7.746 -16.222,-16.751 -16.33,-27.015 1.263,-69.146 0.145,-112.963 -3.353,-132.127 -1.061,-5.81 -2.183,-14.256 -2.007,-24.737 0.084,-4.996 0.753,-13.758 2.007,-26.282 1.766,-9.4 4.941,-18.505 9.526,-27.313 4.338,-8.335 10.074,-16.376 17.208,-24.123 0.481,-1.12 1.296,-2.232 2.456,-3.324 l 18.471,-17.122 7.594,-7.039 -32.368,-3.19 c -30.102,-3.451 -50.612,-23.684 -45.822,-45.216 1.503,-6.76 5.436,-13.128 11.386,-18.443 16.34,-14.777 66.614,-30.739 99.247,-31.507 15.642,-1.089 19.748,3.059 25.023,6.274 3.88,-6.047 9.699,-15.683 13.892,-21.642 4.294,-6.104 8.751,-12.162 13.368,-18.17 11.232,-14.614 21.642,-23.37 34.745,-37.357 33.488,-28.832 84.033,-35.532 139.962,-40.15 22.207,-2.176 96.507,-3.079 171.16,-3.037 35.743,0.02 71.568,0.257 101.794,0.674 33.709,0.465 60.455,1.155 72.363,2.02 30.771,1.764 46.973,6.45 61.079,11.26 11.62,3.961 22.862,8.729 37.568,21.369 34.604,29.741 56.46,57.398 61.05,63.392 2.375,3.103 14.197,17.649 0,21.642 -7.863,2.211 -16.353,-2.949 -24.774,-10.397 -6.786,-6.001 -31.73,-30.373 -40.534,-35.311 -39.754,-31.461 -60.527,-35.665 -102.19,-37.442 -9.187,-0.656 -31.546,-1.233 -60.598,-1.668 -87.41,-1.304 -235.401,-1.305 -267.441,1.795 z m -41.178,295.739 c 0,12.897 -18.31,23.354 -40.896,23.354 h -57.255 c -22.586,0 -40.896,-10.456 -40.896,-23.354 v -8.594 c 0.06,-7.229 5.979,-14.035 16.028,-18.432 10.051,-4.396 23.1,-5.886 35.337,-4.035 l 57.254,8.642 c 17.839,2.697 30.305,11.882 30.428,22.419 z"
   inkscape:connector-curvature="0"
   style="fill:#fc8902;fill-opacity:0.99570001" />
	</g>
</g>
</svg>